<svg width="50" height="50" viewBox="0 0 50 50" fill="none" xmlns="http://www.w3.org/2000/svg">
<g clip-path="url(#clip0_19_84)">
<path d="M29.2311 13.2593C29.2691 13.1324 29.2637 12.9964 29.2155 12.8729C29.1674 12.7495 29.0794 12.6457 28.9654 12.578C28.8514 12.5115 28.7181 12.4857 28.5874 12.505C28.4568 12.5243 28.3366 12.5876 28.2467 12.6843L18.9092 22.6437C18.8316 22.7271 18.78 22.8313 18.7606 22.9436C18.7411 23.0558 18.7548 23.1713 18.7998 23.2759C18.8448 23.3806 18.9193 23.4699 19.0142 23.533C19.1091 23.596 19.2203 23.6301 19.3342 23.6312H23.2123L21.1092 30.4905C21.0711 30.6175 21.0765 30.7535 21.1247 30.8769C21.1728 31.0004 21.2609 31.1042 21.3748 31.1718C21.6092 31.3062 21.9061 31.2655 22.0936 31.0655L31.0936 21.1062C31.1713 21.0225 31.223 20.9181 31.2423 20.8055C31.2616 20.693 31.2477 20.5772 31.2023 20.4725C31.1569 20.3677 31.0819 20.2785 30.9866 20.2156C30.8912 20.1528 30.7796 20.1191 30.6654 20.1187H26.7873L29.2311 13.2593Z" fill="white"/>
<path d="M15.0592 6.25C13.5297 6.24925 12.0336 6.69747 10.7565 7.53906C9.47941 8.38066 8.47742 9.57862 7.8748 10.9844L5.3998 16.7594C5.16718 17.3083 4.74602 17.7561 4.2123 18.0219C2.6498 18.8031 1.54043 20.2563 1.19668 21.9656L0.156055 27.2125C0.0547446 27.7166 0.00345416 28.2295 0.00292969 28.7438V30.0344C0.00292969 32.5781 1.22168 34.8562 3.12793 36.275V42.1875C3.12793 42.6019 3.29255 42.9993 3.58558 43.2924C3.8786 43.5854 4.27603 43.75 4.69043 43.75H10.9404C11.3548 43.75 11.7523 43.5854 12.0453 43.2924C12.3383 42.9993 12.5029 42.6019 12.5029 42.1875V38.0062C16.5404 38.1562 21.0811 38.2812 25.0029 38.2812C28.9248 38.2812 33.4654 38.1562 37.5029 38.0062V42.1875C37.5029 42.6019 37.6675 42.9993 37.9606 43.2924C38.2536 43.5854 38.651 43.75 39.0654 43.75H45.3154C45.7298 43.75 46.1273 43.5854 46.4203 43.2924C46.7133 42.9993 46.8779 42.6019 46.8779 42.1875V36.275C48.7842 34.8562 50.0029 32.5781 50.0029 30.0344V28.7438C50.0029 28.2271 49.9519 27.7167 49.8498 27.2125L48.8029 21.9625C48.6354 21.1191 48.2767 20.3253 47.7545 19.6422C47.2323 18.9591 46.5604 18.4048 45.7904 18.0219C45.2555 17.7567 44.8332 17.3089 44.5998 16.7594L42.1248 10.9844C41.5222 9.57862 40.5202 8.38066 39.2431 7.53906C37.966 6.69747 36.4699 6.24925 34.9404 6.25H15.0623H15.0592ZM10.7498 12.2188C11.111 11.3744 11.7123 10.6548 12.479 10.1492C13.2457 9.64367 14.1439 9.37445 15.0623 9.375H34.9436C35.8614 9.37506 36.759 9.64456 37.5251 10.1501C38.2911 10.6556 38.8919 11.3749 39.2529 12.2188L41.7279 17.9906C42.2529 19.2189 43.1978 20.2203 44.3936 20.8156C45.0873 21.1656 45.5842 21.8156 45.7373 22.5781L46.7873 27.825C46.8498 28.1292 46.88 28.4354 46.8779 28.7438V30.0344C46.8826 31.2252 46.4277 32.3718 45.6081 33.2357C44.7885 34.0995 43.6673 34.614 42.4779 34.6719C37.6186 34.8906 30.6467 35.1562 25.0029 35.1562C19.3592 35.1562 12.3873 34.8938 7.52793 34.6719C6.338 34.6147 5.21601 34.1006 4.39575 33.2367C3.57548 32.3728 3.12021 31.2257 3.1248 30.0344V28.7438C3.1248 28.4354 3.15605 28.1292 3.21855 27.825L4.26543 22.575C4.33928 22.1983 4.49891 21.8436 4.73194 21.5385C4.96497 21.2334 5.26514 20.986 5.60918 20.8156C6.80605 20.2219 7.7498 19.2188 8.27481 17.9906L10.7498 12.2188Z" fill="white"/>
</g>
<defs>
<clipPath id="clip0_19_84">
<rect width="50" height="50" fill="white"/>
</clipPath>
</defs>
</svg>
