<svg width="50" height="50" viewBox="0 0 50 50" fill="none" xmlns="http://www.w3.org/2000/svg">
<path d="M46.792 21.7749H43.667C42.5154 21.7749 41.5186 22.4077 40.9764 23.3374H9.39824L13.4998 12.3999H24.917V9.2749H13.4998C12.8642 9.27689 12.2442 9.47168 11.7217 9.83351C11.1991 10.1954 10.7987 10.7072 10.5732 11.3015L6.64512 21.7749H3.04199V24.8999H6.16699V38.9624C6.16699 40.6843 7.56855 42.0874 9.29199 42.0874V46.7749H12.417V42.0874H37.417V46.7749H40.542V42.0874C42.2639 42.0874 43.667 40.6843 43.667 38.9624V24.8999H46.792V21.7749ZM9.29199 38.9624V34.2749H13.9795V31.1499H9.29199V26.4624H40.542V31.1499H35.8545V34.2749H40.542V38.9624H9.29199Z" fill="white"/>
<path d="M18.7173 31.1577H31.2173V34.2827H18.7173V31.1577ZM46.1517 3.94678L35.8548 14.2437L31.8079 10.1968L29.6048 12.3999L35.8548 18.6499L48.3548 6.1499L46.1517 3.94678Z" fill="white"/>
</svg>
