<svg width="50" height="50" viewBox="0 0 50 50" fill="none" xmlns="http://www.w3.org/2000/svg">
<path d="M35.9375 3.125C36.3519 3.125 36.7493 3.28962 37.0424 3.58265C37.3354 3.87567 37.5 4.2731 37.5 4.6875C37.5 5.1019 37.3354 5.49933 37.0424 5.79235C36.7493 6.08538 36.3519 6.25 35.9375 6.25H34.375V15.7813C36.1396 16.1415 37.7256 17.1003 38.8645 18.4955C40.0035 19.8906 40.6254 21.6365 40.625 23.4375V35.9375C40.625 38.0095 39.8019 39.9966 38.3368 41.4618C36.8716 42.9269 34.8845 43.75 32.8125 43.75H17.1875C15.1155 43.75 13.1284 42.9269 11.6632 41.4618C10.1981 39.9966 9.375 38.0095 9.375 35.9375V23.4375C9.37463 21.6365 9.99654 19.8906 11.1355 18.4955C12.2744 17.1003 13.8604 16.1415 15.625 15.7813V6.25H14.0625C13.6481 6.25 13.2507 6.08538 12.9576 5.79235C12.6646 5.49933 12.5 5.1019 12.5 4.6875C12.5 4.2731 12.6646 3.87567 12.9576 3.58265C13.2507 3.28962 13.6481 3.125 14.0625 3.125H35.9375ZM12.5 35.9375C12.5 37.1807 12.9939 38.373 13.8729 39.2521C14.752 40.1311 15.9443 40.625 17.1875 40.625H32.8125C34.0557 40.625 35.248 40.1311 36.1271 39.2521C37.0061 38.373 37.5 37.1807 37.5 35.9375V31.25H12.5V35.9375ZM17.1875 18.75C15.9443 18.75 14.752 19.2439 13.8729 20.1229C12.9939 21.002 12.5 22.1943 12.5 23.4375V28.125H37.5V23.4375C37.5 22.1943 37.0061 21.002 36.1271 20.1229C35.248 19.2439 34.0557 18.75 32.8125 18.75H17.1875ZM18.75 15.625H23.4375V12.5C23.0231 12.5 22.6257 12.3354 22.3326 12.0424C22.0396 11.7493 21.875 11.3519 21.875 10.9375C21.875 10.5231 22.0396 10.1257 22.3326 9.83265C22.6257 9.53962 23.0231 9.375 23.4375 9.375H26.5625C26.9769 9.375 27.3743 9.53962 27.6674 9.83265C27.9604 10.1257 28.125 10.5231 28.125 10.9375C28.125 11.3519 27.9604 11.7493 27.6674 12.0424C27.3743 12.3354 26.9769 12.5 26.5625 12.5V15.625H31.25V6.25H18.75V15.625Z" fill="white"/>
</svg>
