<svg width="50" height="50" viewBox="0 0 50 50" fill="none" xmlns="http://www.w3.org/2000/svg">
<path d="M25 3.125L18.75 12.5L26.5625 14.0625L25 21.875L31.25 12.5L23.4375 10.9375L25 3.125ZM15.625 24.3164C15.4395 24.3164 14.668 24.6094 14.082 24.9707C13.8086 25.1367 13.5645 25.3125 13.3789 25.4395V37.0605C13.5645 37.1875 13.8086 37.3633 14.082 37.5293C14.668 37.8906 15.4395 38.1836 15.625 38.1836C15.8105 38.1836 16.582 37.8906 17.168 37.5293C17.7441 37.168 18.2031 36.8164 18.2031 36.8164L18.4473 36.6211H19.6289V25.8789H18.4473L18.2031 25.6836C18.2031 25.6836 17.7441 25.332 17.168 24.9707C16.582 24.6094 15.8105 24.3164 15.625 24.3164ZM34.375 24.3164C34.1895 24.3164 33.418 24.6094 32.832 24.9707C32.2559 25.332 31.7969 25.6836 31.7969 25.6836L31.5527 25.8789H30.3711V36.6211H31.5527L31.7969 36.8164C31.7969 36.8164 32.2559 37.168 32.832 37.5293C33.418 37.8906 34.1895 38.1836 34.375 38.1836C34.5605 38.1836 35.332 37.8906 35.918 37.5293C36.1914 37.3633 36.4355 37.1875 36.6211 37.0605V25.4395C36.4355 25.3125 36.1914 25.1367 35.918 24.9707C35.332 24.6094 34.5605 24.3164 34.375 24.3164ZM21.3867 25.8789V36.6211H22.7539V25.8789H21.3867ZM24.5117 25.8789V36.6211H28.6133V25.8789H24.5117ZM9.32617 30.3711C7.49023 30.3711 5.75195 31.2695 4.44922 32.5879C3.14648 33.8965 2.24609 35.6445 2.24609 37.5V47.8516H4.00391V37.5C4.00391 36.2305 4.66602 34.8535 5.69531 33.8184C6.72363 32.793 8.08594 32.1289 9.32617 32.1289H11.6211V30.3711H9.32617ZM38.3789 30.3711V32.1289H40.6152C41.8945 32.1289 43.2617 32.793 44.2969 33.8281C45.332 34.8633 45.9961 36.2305 45.9961 37.5V47.8516H47.7539V37.5C47.7539 35.6445 46.8555 33.8867 45.5371 32.5781C44.2285 31.2695 42.4707 30.3711 40.6152 30.3711H38.3789Z" fill="white"/>
</svg>
