<svg width="50" height="50" viewBox="0 0 50 50" fill="none" xmlns="http://www.w3.org/2000/svg">
<path d="M12.7552 4.19946V10.7352C10.5164 12.659 9.04131 15.44 8.79688 18.5723H31.6982C31.4379 15.2349 29.7806 12.2964 27.2907 10.3686H14.5804V4.19946H12.7552ZM46.1543 5.73618L42.0986 6.8228L43.7104 12.8373L47.7655 11.7506L46.1543 5.73618ZM40.8768 9.31304L31.2296 11.898C31.7586 12.6678 32.2053 13.491 32.5623 14.3541L41.5801 11.9375L40.8768 9.31304ZM11.8682 20.1506L4.21543 23.7683L4.21563 28.6804L5.99365 27.9425H43.1748L45.0611 28.5688C45.0611 23.5496 33.4326 20.4116 27.1738 20.1508H11.8682V20.1506ZM8.14063 29.7092V29.7129C4.63125 29.7759 1.78662 32.6573 1.78662 36.1809C1.78662 39.7438 4.69453 42.6516 8.25752 42.6516C8.38311 42.6516 8.50781 42.6471 8.63174 42.6399H19.0295C19.1535 42.6471 19.278 42.6516 19.4037 42.6516C19.5294 42.6516 19.654 42.6471 19.7779 42.6399H30.2604C30.3844 42.6471 30.5089 42.6516 30.6346 42.6516C30.7603 42.6516 30.8848 42.6471 31.0086 42.6399H41.377C41.5008 42.6471 41.6254 42.6516 41.751 42.6516C45.3141 42.6516 48.222 39.7438 48.222 36.1809C48.222 32.618 45.3141 29.71 41.7511 29.71C41.7241 29.71 41.6974 29.712 41.6703 29.7122V29.7092H8.14063ZM12.75 31.534H14.9111C14.4916 31.94 14.1282 32.4002 13.8308 32.9026C13.5335 32.4 13.17 31.9397 12.7501 31.534H12.75ZM23.8965 31.534H26.1421C25.702 31.9596 25.324 32.4451 25.0192 32.976C24.7145 32.4451 24.3366 31.9596 23.8965 31.534ZM35.1273 31.534H37.2585C36.846 31.9329 36.4877 32.3843 36.1929 32.8766C35.8981 32.3843 35.5398 31.9329 35.1273 31.534ZM8.25752 31.5352C8.86812 31.5334 9.47305 31.6523 10.0375 31.8851C10.602 32.1179 11.1149 32.4601 11.5466 32.8918C11.9784 33.3236 12.3205 33.8364 12.5533 34.4009C12.7861 34.9654 12.9051 35.5703 12.9032 36.1809C12.9067 37.3592 12.4608 38.4944 11.6564 39.3554C10.852 40.2164 9.74961 40.7382 8.57383 40.8147H8.14063V40.8235C6.92809 40.797 5.77435 40.2958 4.92742 39.4277C4.0805 38.5595 3.60801 37.3937 3.61152 36.1809C3.60974 35.5703 3.7287 34.9654 3.96156 34.4009C4.19442 33.8364 4.53658 33.3236 4.96836 32.8918C5.40013 32.4601 5.91301 32.118 6.47749 31.8851C7.04197 31.6523 7.64691 31.5334 8.25752 31.5352ZM19.4038 31.5352C20.0144 31.5334 20.6194 31.6523 21.1838 31.8851C21.7483 32.1179 22.2612 32.46 22.693 32.8918C23.1247 33.3235 23.4669 33.8364 23.6997 34.4009C23.9325 34.9654 24.0514 35.5703 24.0496 36.1809C24.0531 37.3592 23.6072 38.4944 22.8028 39.3554C21.9985 40.2163 20.8961 40.7382 19.7203 40.8147H19.0875C17.9117 40.7383 16.8092 40.2164 16.0048 39.3555C15.2003 38.4945 14.7544 37.3592 14.7579 36.1809C14.7561 35.5703 14.8751 34.9654 15.108 34.4009C15.3408 33.8364 15.683 33.3236 16.1147 32.8918C16.5465 32.4601 17.0594 32.118 17.6239 31.8851C18.1884 31.6523 18.7932 31.5334 19.4038 31.5352ZM30.6347 31.5352C31.2449 31.5334 31.8495 31.6522 32.4137 31.8848C32.9779 32.1174 33.4906 32.4592 33.9223 32.8905C34.354 33.3219 34.6962 33.8343 34.9292 34.3983C35.1622 34.9623 35.2815 35.5668 35.2802 36.1771V36.1847C35.2827 37.3623 34.8365 38.4966 34.0322 39.3568C33.228 40.217 32.1262 40.7384 30.9511 40.8149H30.3183C29.1424 40.7385 28.04 40.2166 27.2356 39.3557C26.4311 38.4947 25.9852 37.3594 25.9887 36.1811C25.9869 35.5705 26.1058 34.9656 26.3387 34.4011C26.5715 33.8366 26.9137 33.3238 27.3454 32.892C27.7772 32.4602 28.2901 32.1181 28.8546 31.8853C29.419 31.6524 30.024 31.5335 30.6346 31.5353L30.6347 31.5352ZM41.7509 31.5352C42.3615 31.5333 42.9665 31.6522 43.531 31.885C44.0955 32.1178 44.6084 32.46 45.0402 32.8917C45.472 33.3235 45.8141 33.8364 46.0469 34.4008C46.2798 34.9653 46.3987 35.5703 46.3969 36.1809C46.3987 36.7915 46.2798 37.3965 46.047 37.961C45.8141 38.5254 45.472 39.0383 45.0402 39.4701C44.6084 39.9018 44.0955 40.244 43.531 40.4768C42.9665 40.7096 42.3616 40.8285 41.751 40.8266C41.7239 40.8266 41.6973 40.825 41.6702 40.8247V40.8149H41.4347C40.2596 40.7384 39.1578 40.217 38.3535 39.3568C37.5493 38.4966 37.103 37.3623 37.1056 36.1847V36.1771C37.1043 35.5668 37.2235 34.9624 37.4566 34.3983C37.6896 33.8343 38.0318 33.3219 38.4635 32.8906C38.8952 32.4593 39.4079 32.1175 39.972 31.8849C40.5362 31.6523 41.1408 31.5335 41.7511 31.5353L41.7509 31.5352ZM25.0191 39.3858C25.3208 39.9114 25.6943 40.3923 26.1287 40.8148H23.9096C24.344 40.3924 24.7174 39.9115 25.0189 39.3859L25.0191 39.3858ZM13.8305 39.459C14.1249 39.9561 14.4838 40.412 14.8979 40.8148H12.7633C13.1775 40.4121 13.5363 39.9563 13.8305 39.4591V39.459ZM36.1928 39.485C36.4842 39.9722 36.838 40.4192 37.2451 40.8148H35.1406C35.5477 40.4192 35.9014 39.9722 36.1928 39.485Z" fill="white"/>
</svg>
